<?xml version="1.0" encoding="utf-8"?>
<!-- Generator: Adobe Illustrator 25.4.1, SVG Export Plug-In . SVG Version: 6.00 Build 0)  -->
<svg version="1.1" id="Layer_1" xmlns="http://www.w3.org/2000/svg" xmlns:xlink="http://www.w3.org/1999/xlink" x="0px" y="0px"
	 viewBox="0 0 620.5 184.2" style="enable-background:new 0 0 620.5 184.2;" xml:space="preserve">
<style type="text/css">
	.st0{fill:#3C3C3B;}
	.st1{fill:#1A1A1A;}
	.st2{fill:url(#SVGID_1_);}
	.st3{fill:url(#SVGID_00000144331785779946481300000015110259945144085418_);}
	.st4{fill:url(#SVGID_00000181069823399646809160000005500040840499177381_);}
	.st5{fill:#F9BA15;}
	.st6{fill:#FEF3D8;}
	.st7{fill:#282727;}
	.st8{fill:#D6D7D7;}
	.st9{fill:url(#SVGID_00000006698665397323672350000012742803593448555655_);}
</style>
<path class="st0" d="M260.2,117.3c-3.3-5.8-5-12.2-5-19.2s1.7-13.4,5-19.2c3.4-5.8,7.9-10.4,13.7-13.7c5.8-3.3,12.2-5,19.3-5
	s13.5,1.7,19.4,5c5.8,3.3,10.4,7.9,13.8,13.7c3.4,5.8,5,12.2,5,19.2s-1.7,13.4-5,19.1c-3.3,5.8-7.9,10.3-13.7,13.7s-12.3,5-19.5,5
	s-13.6-1.7-19.4-5C268.1,127.7,263.6,123.1,260.2,117.3z M314.2,110.3c2-3.7,3.1-7.7,3.1-12.2s-1-8.5-3.1-12.2s-4.9-6.6-8.6-8.7
	c-3.6-2.1-7.7-3.2-12.2-3.2s-8.6,1-12.2,3.1c-3.6,2.1-6.5,5-8.6,8.6c-2.1,3.7-3.1,7.8-3.1,12.3s1,8.6,3.1,12.2
	c2.1,3.6,4.9,6.5,8.6,8.6s7.7,3.2,12.2,3.2c4.6,0,8.7-1.1,12.3-3.2C309.3,116.8,312.1,114,314.2,110.3z"/>
<path class="st0" d="M440.4,134.5h-14.8l-7.1-37.3L399,136h-0.8l-19.5-38.8l-7.2,37.3h-14.9l14.3-74.3h1.9l25.8,50.2l25.8-50.2h1.8
	L440.4,134.5z"/>
<path class="st0" d="M484.4,121.4H514v13.1h-43.7V61.7h43.2v13h-29v16.6h26.4v13h-26.4V121.4z"/>
<path class="st0" d="M546.2,61.7h26c6.7,0,12.6,1.6,17.9,4.8c5.3,3.2,9.4,7.6,12.4,13.2s4.5,11.7,4.5,18.4s-1.5,12.9-4.5,18.4
	c-3,5.5-7.1,9.9-12.4,13.2c-5.3,3.2-11.3,4.8-17.9,4.8h-26V61.7z M583,117.8c3.2-2,5.6-4.7,7.3-8.2c1.7-3.4,2.6-7.3,2.6-11.5
	c0-4.3-0.9-8.2-2.6-11.6c-1.7-3.4-4.2-6.1-7.3-8.1c-3.2-2-6.7-3-10.8-3h-11.3v45.4h11.3C576.2,120.8,579.8,119.8,583,117.8z"/>
<g>
	<path d="M68.4,35.5c0.1,0,0.3,0,0.4,0C68.7,35.5,68.5,35.5,68.4,35.5z"/>
	<path d="M66.2,35.6c0.1,0,0.1,0,0.2,0C66.3,35.6,66.2,35.6,66.2,35.6z"/>
	<path d="M63.9,35.8c0.1,0,0.2,0,0.3,0C64.1,35.8,64,35.8,63.9,35.8z"/>
	<path d="M61.7,36.2C61.7,36.1,61.8,36.1,61.7,36.2C61.8,36.1,61.7,36.1,61.7,36.2z"/>
	<path d="M71.5,35.4c0.3,0,0.6,0,0.9,0C72.2,35.4,71.9,35.4,71.5,35.4z"/>
	<path d="M78,35.9c0.1,0,0.3,0,0.4,0C78.3,35.9,78.2,35.9,78,35.9z"/>
	<path d="M79.6,36.1c0.1,0,0.2,0,0.2,0C79.8,36.1,79.7,36.1,79.6,36.1z"/>
	<path d="M76.4,35.7c0.2,0,0.4,0,0.5,0.1C76.8,35.7,76.6,35.7,76.4,35.7z"/>
	<path d="M73.2,35.5c0.2,0,0.5,0,0.7,0C73.7,35.5,73.5,35.5,73.2,35.5z"/>
	<path d="M74.8,35.6c0.2,0,0.4,0,0.7,0C75.3,35.6,75.1,35.6,74.8,35.6z"/>
	<path d="M76.4,151.2c-0.3,0-0.6,0.1-0.9,0.1C75.8,151.3,76.1,151.2,76.4,151.2z"/>
	<path d="M78,151c-0.3,0-0.7,0.1-1,0.1C77.3,151.1,77.7,151.1,78,151z"/>
	<path d="M79.6,150.8c-0.4,0.1-0.8,0.1-1.2,0.2C78.8,150.9,79.2,150.9,79.6,150.8z"/>
	<path d="M95,146.3L95,146.3c-4.4,2-9,3.4-13.9,4.3C86,149.7,90.7,148.2,95,146.3z"/>
	<path d="M81.2,150.6c-0.4,0.1-0.9,0.2-1.3,0.2C80.3,150.7,80.7,150.6,81.2,150.6z"/>
	<path d="M156.2,151.1c-0.7-0.1-1.4-0.2-2.1-0.3C154.8,151,155.5,151.1,156.2,151.1z"/>
	<path d="M158,151.3c-0.3,0-0.5,0-0.8-0.1C157.5,151.3,157.8,151.3,158,151.3z"/>
	<path d="M81.2,36.3C81.2,36.3,81.2,36.3,81.2,36.3C81.2,36.3,81.2,36.3,81.2,36.3z"/>
	<path d="M66.2,151.3c-0.7-0.1-1.3-0.1-2-0.2C64.8,151.2,65.5,151.2,66.2,151.3z"/>
	<path d="M68.4,151.4c-0.7,0-1.4-0.1-2.1-0.1C67,151.3,67.7,151.4,68.4,151.4z"/>
	<path d="M63.9,151c-0.7-0.1-1.4-0.2-2.1-0.3C62.5,150.9,63.2,151,63.9,151z"/>
	<path d="M74.8,151.3c-0.3,0-0.6,0-0.9,0.1C74.3,151.4,74.6,151.4,74.8,151.3z"/>
	<path d="M73.2,151.4c-0.3,0-0.5,0-0.8,0C72.7,151.4,73,151.4,73.2,151.4z"/>
	<path d="M160.4,35.5c0.6,0,1.3,0,1.9,0C161.7,35.4,161,35.4,160.4,35.5z"/>
	<path d="M158,35.6c0.6,0,1.2-0.1,1.8-0.1C159.2,35.5,158.6,35.5,158,35.6z"/>
	<path d="M37.4,140.9c7.1,5,15.3,8.5,24.2,9.9C52.8,149.3,44.5,145.8,37.4,140.9L37.4,140.9z"/>
	<path d="M156.2,35.7c0.3,0,0.7-0.1,1-0.1C156.9,35.7,156.5,35.7,156.2,35.7z"/>
	<path d="M154,36c0,0,0.1,0,0.1,0C154.1,36,154,36,154,36z"/>
	<path d="M162.4,151.5C162.4,151.5,162.3,151.5,162.4,151.5C162.3,151.5,162.4,151.5,162.4,151.5c32.1,0,58.1-26,58.1-58
		c0,0,0,0,0,0C220.4,125.5,194.4,151.5,162.4,151.5z"/>
	<path d="M160.4,151.4c-0.2,0-0.4,0-0.5,0C160,151.4,160.2,151.4,160.4,151.4z"/>
	<path d="M68.8,151.4c0.7,0,1.4,0,2.1,0c0.2,0,0.4,0,0.6,0c-0.2,0-0.4,0-0.6,0C70.2,151.5,69.5,151.5,68.8,151.4z"/>
	<path class="st1" d="M75.5,151.3c-0.2,0-0.4,0-0.7,0C75.1,151.3,75.3,151.3,75.5,151.3z"/>
	<path class="st1" d="M74,151.4c-0.2,0-0.5,0-0.7,0C73.5,151.4,73.7,151.4,74,151.4z"/>
	<path class="st1" d="M68.8,151.4c-0.1,0-0.3,0-0.4,0C68.5,151.4,68.7,151.4,68.8,151.4z"/>
	<path class="st1" d="M61.7,36.2C52.8,37.6,44.5,41,37.4,46l0,0C44.5,41.1,52.8,37.6,61.7,36.2z"/>
	<path class="st1" d="M72.5,151.4c-0.3,0-0.6,0-0.9,0C71.9,151.5,72.2,151.5,72.5,151.4z"/>
	<path class="st1" d="M154.1,150.9c0,0-0.1,0-0.1,0C154,150.9,154.1,150.9,154.1,150.9z"/>
	<path class="st1" d="M162.3,151.5c-0.7,0-1.3,0-1.9,0C161,151.5,161.7,151.5,162.3,151.5z"/>
	<path class="st1" d="M157.2,151.2c-0.3,0-0.7-0.1-1-0.1C156.5,151.2,156.9,151.2,157.2,151.2z"/>
	<path class="st1" d="M95,40.6c-4.4-2-9-3.4-13.9-4.3C86,37.2,90.7,38.7,95,40.6L95,40.6z"/>
	<path class="st1" d="M78.4,151c-0.1,0-0.3,0-0.4,0C78.2,151,78.3,151,78.4,151z"/>
	<path class="st1" d="M77,151.2c-0.2,0-0.4,0-0.5,0.1C76.6,151.2,76.8,151.2,77,151.2z"/>
	<path class="st1" d="M79.8,150.8c-0.1,0-0.2,0-0.2,0C79.7,150.8,79.8,150.8,79.8,150.8z"/>
	<path class="st1" d="M81.2,150.6C81.2,150.6,81.2,150.6,81.2,150.6C81.2,150.6,81.2,150.6,81.2,150.6z"/>
	<path class="st1" d="M159.8,151.4c-0.6,0-1.2-0.1-1.8-0.1C158.6,151.3,159.2,151.4,159.8,151.4z"/>
	<path class="st1" d="M74,35.5c0.3,0,0.6,0,0.9,0.1C74.6,35.5,74.3,35.5,74,35.5z"/>
	<path class="st1" d="M157.2,35.6c0.3,0,0.5,0,0.8-0.1C157.8,35.6,157.5,35.6,157.2,35.6z"/>
	<path class="st1" d="M159.8,35.5c0.2,0,0.4,0,0.5,0C160.2,35.5,160,35.5,159.8,35.5z"/>
	<path class="st1" d="M72.5,35.4c0.3,0,0.5,0,0.8,0C73,35.5,72.7,35.4,72.5,35.4z"/>
	<path class="st1" d="M75.5,35.6c0.3,0,0.6,0.1,0.9,0.1C76.1,35.7,75.8,35.6,75.5,35.6z"/>
	<path class="st1" d="M79.8,36.1c0.4,0.1,0.9,0.1,1.3,0.2C80.7,36.2,80.3,36.2,79.8,36.1z"/>
	<path class="st1" d="M154.1,36c0.7-0.1,1.4-0.2,2.1-0.3C155.5,35.8,154.8,35.9,154.1,36z"/>
	<path class="st1" d="M77,35.7c0.3,0,0.7,0.1,1,0.1C77.7,35.8,77.3,35.8,77,35.7z"/>
	<path class="st1" d="M66.3,151.3c-0.1,0-0.1,0-0.2,0C66.2,151.3,66.3,151.3,66.3,151.3z"/>
	<path class="st1" d="M78.4,35.9c0.4,0.1,0.8,0.1,1.2,0.2C79.2,36,78.8,36,78.4,35.9z"/>
	<path class="st1" d="M64.2,151.1c-0.1,0-0.2,0-0.3,0C64,151.1,64.1,151.1,64.2,151.1z"/>
	<path class="st1" d="M61.8,150.8C61.8,150.7,61.7,150.7,61.8,150.8C61.7,150.7,61.8,150.7,61.8,150.8z"/>
	<path class="st1" d="M71.5,35.4c-0.2,0-0.4,0-0.6,0c-0.7,0-1.4,0-2.1,0c0.7,0,1.4,0,2.1,0C71.1,35.4,71.3,35.4,71.5,35.4z"/>
	<path class="st1" d="M66.3,35.6c0.7-0.1,1.4-0.1,2.1-0.1C67.7,35.5,67,35.5,66.3,35.6z"/>
	<path class="st1" d="M220.4,93.4C220.4,93.4,220.4,93.4,220.4,93.4c0-32.1-26-58-58.1-58c0,0,0,0-0.1,0c0,0,0,0,0.1,0
		C194.4,35.4,220.4,61.4,220.4,93.4z"/>
	<path class="st1" d="M61.8,36.1c0.7-0.1,1.4-0.2,2.1-0.3C63.2,35.9,62.5,36,61.8,36.1z"/>
	<path class="st1" d="M64.2,35.8c0.7-0.1,1.3-0.1,2-0.2C65.5,35.7,64.8,35.7,64.2,35.8z"/>
	<linearGradient id="SVGID_1_" gradientUnits="userSpaceOnUse" x1="151.7632" y1="150.494" x2="151.8006" y2="150.494">
		<stop  offset="0" style="stop-color:#FFEF26"/>
		<stop  offset="5.948725e-02" style="stop-color:#FFE000"/>
		<stop  offset="0.1303" style="stop-color:#FFD300"/>
		<stop  offset="0.2032" style="stop-color:#FECB00"/>
		<stop  offset="0.2809" style="stop-color:#FDC800"/>
		<stop  offset="0.6685" style="stop-color:#F18F34"/>
		<stop  offset="0.8876" style="stop-color:#E95F32"/>
		<stop  offset="1" style="stop-color:#E3312D"/>
	</linearGradient>
	<path class="st2" d="M151.8,150.5C151.8,150.5,151.8,150.5,151.8,150.5C151.8,150.5,151.8,150.5,151.8,150.5z"/>
	<g>
		
			<linearGradient id="SVGID_00000119836104202181570210000016792476431834013597_" gradientUnits="userSpaceOnUse" x1="12.87" y1="93.4429" x2="220.4323" y2="93.4429">
			<stop  offset="0" style="stop-color:#FFEF26"/>
			<stop  offset="5.948725e-02" style="stop-color:#FFE000"/>
			<stop  offset="0.1303" style="stop-color:#FFD300"/>
			<stop  offset="0.2032" style="stop-color:#FECB00"/>
			<stop  offset="0.2809" style="stop-color:#FDC800"/>
			<stop  offset="0.6685" style="stop-color:#F18F34"/>
			<stop  offset="0.8876" style="stop-color:#E95F32"/>
			<stop  offset="1" style="stop-color:#E3312D"/>
		</linearGradient>
		<path style="fill:url(#SVGID_00000119836104202181570210000016792476431834013597_);" d="M181.7,38.7c-3.1-1.1-6.3-2-9.5-2.6
			c0,0,0,0,0,0c-0.4-0.1-0.9-0.2-1.3-0.2c-0.1,0-0.2,0-0.2,0c-0.4-0.1-0.8-0.1-1.2-0.2c-0.1,0-0.3,0-0.4,0c-0.3,0-0.7-0.1-1-0.1
			c-0.2,0-0.4,0-0.5-0.1c-0.3,0-0.6-0.1-0.9-0.1c-0.2,0-0.4,0-0.7,0c-0.3,0-0.6,0-0.9-0.1c-0.2,0-0.5,0-0.7,0c-0.3,0-0.5,0-0.8,0
			c-0.3,0-0.6,0-0.9,0c-0.2,0-0.4,0-0.6,0c-0.7,0-1.4,0-2.1,0c-0.1,0-0.3,0-0.4,0c-0.7,0-1.4,0.1-2.1,0.1c-0.1,0-0.1,0-0.2,0
			c-0.7,0.1-1.3,0.1-2,0.2c-0.1,0-0.2,0-0.3,0c-0.7,0.1-1.4,0.2-2.1,0.3c0,0-0.1,0-0.1,0c-8.9,1.4-17.1,4.9-24.2,9.9l0,0
			c-4.6,3.2-8.7,7.1-12.1,11.5c-3.4-4.3-7.4-8.1-11.9-11.3c-2.9-2.1-6-3.9-9.3-5.4c-4.4-2-9-3.5-13.9-4.3c0,0,0,0,0,0
			c-0.4-0.1-0.9-0.2-1.3-0.2c-0.1,0-0.2,0-0.2,0c-0.4-0.1-0.8-0.1-1.2-0.2c-0.1,0-0.3,0-0.4,0c-0.3,0-0.7-0.1-1-0.1
			c-0.2,0-0.4,0-0.5-0.1c-0.3,0-0.6-0.1-0.9-0.1c-0.2,0-0.4,0-0.7,0c-0.3,0-0.6,0-0.9-0.1c-0.2,0-0.5,0-0.7,0c-0.3,0-0.5,0-0.8,0
			c-0.3,0-0.6,0-0.9,0c-0.2,0-0.4,0-0.6,0c-0.7,0-1.4,0-2.1,0c-0.1,0-0.3,0-0.4,0c-0.7,0-1.4,0.1-2.1,0.1c-0.1,0-0.1,0-0.2,0
			c-0.7,0.1-1.3,0.1-2,0.2c-0.1,0-0.2,0-0.3,0c-0.7,0.1-1.4,0.2-2.1,0.3c0,0-0.1,0-0.1,0c-8.9,1.4-17.1,4.9-24.2,9.9l0,0L12.9,13.4
			v80v0.1c0,19.6,9.7,36.9,24.6,47.4l0,0c7.1,5,15.3,8.5,24.2,9.9c0,0,0.1,0,0.1,0c0.7,0.1,1.4,0.2,2.1,0.3c0.1,0,0.2,0,0.3,0
			c0.7,0.1,1.3,0.1,2,0.2c0.1,0,0.1,0,0.2,0c0.7,0.1,1.4,0.1,2.1,0.1c0.1,0,0.3,0,0.4,0c0.7,0,1.4,0,2.1,0c0.2,0,0.4,0,0.6,0
			c0.3,0,0.6,0,0.9,0c0.3,0,0.5,0,0.8,0c0.2,0,0.5,0,0.7,0c0.3,0,0.6,0,0.9-0.1c0.2,0,0.4,0,0.7,0c0.3,0,0.6-0.1,0.9-0.1
			c0.2,0,0.4,0,0.5-0.1c0.3,0,0.7-0.1,1-0.1c0.1,0,0.3,0,0.4,0c0.4-0.1,0.8-0.1,1.2-0.2c0.1,0,0.2,0,0.2,0c0.4-0.1,0.9-0.1,1.3-0.2
			c0,0,0,0,0,0c4.9-0.9,9.5-2.3,13.9-4.3c3.3-1.5,6.4-3.3,9.3-5.4c0,0,0,0,0,0v32.7l24.5-32.6c2.3,1.6,4.6,3,7.1,4.2
			c0.2,0.1,0.4,0.2,0.6,0.3c0.2,0.1,0.4,0.2,0.6,0.3c4.5,2.2,9.4,3.8,14.5,4.7c-0.1,0-0.1,0-0.2,0c0.2,0,0.3,0.1,0.5,0.1
			c-0.1,0-0.2,0-0.2,0c0.2,0,0.5,0.1,0.7,0.1c0.5,0.1,1,0.2,1.5,0.2c0,0,0.1,0,0.1,0c0.7,0.1,1.4,0.2,2.1,0.3c0.3,0,0.7,0.1,1,0.1
			c0.3,0,0.5,0,0.8,0.1c0.6,0,1.2,0.1,1.8,0.1c0.2,0,0.4,0,0.5,0c0.6,0,1.3,0,1.9,0c0,0,0,0,0.1,0c32.1,0,58-26,58.1-58
			C220.4,68.2,204.3,46.7,181.7,38.7z M70.8,128.2c-19,0-34.5-15.4-34.5-34.5s15.4-34.5,34.5-34.5c19,0,34.5,15.4,34.5,34.5
			S89.8,128.2,70.8,128.2z M162.7,128.2c-19,0-34.5-15.4-34.5-34.5s15.4-34.5,34.5-34.5s34.5,15.4,34.5,34.5
			S181.7,128.2,162.7,128.2z"/>
	</g>
	<g>
		<g>
			
				<linearGradient id="SVGID_00000011016892936318125000000016509450514102339250_" gradientUnits="userSpaceOnUse" x1="57.6948" y1="19.7867" x2="218.7257" y2="133.0116">
				<stop  offset="0" style="stop-color:#FFEF26"/>
				<stop  offset="5.948725e-02" style="stop-color:#FFE000"/>
				<stop  offset="0.1303" style="stop-color:#FFD300"/>
				<stop  offset="0.2032" style="stop-color:#FECB00"/>
				<stop  offset="0.2809" style="stop-color:#FDC800"/>
				<stop  offset="0.6685" style="stop-color:#F18F34"/>
				<stop  offset="0.8876" style="stop-color:#E95F32"/>
				<stop  offset="1" style="stop-color:#E3312D"/>
			</linearGradient>
			<path style="fill:url(#SVGID_00000011016892936318125000000016509450514102339250_);" d="M160.7,68.5c5-0.5,10.1,0.8,14.3,3.6
				c4.3,2.8,7.6,6.8,9.5,11.6c2,5,2.5,10.4,1.4,15.7c-0.8,3.9-2.6,7.6-5,10.7c-2.2,2.8-5,5-8.2,6.6c-3.7,1.8-7.8,2.5-11.9,2.1
				c-4.1-0.4-8-1.9-11.4-4.4c-4-2.9-7-7-8.6-11.6c-2-5.5-2.1-11.5-0.4-17.1c1.5-4.9,4.5-9.2,8.5-12.4
				C152.2,70.5,156.3,68.9,160.7,68.5z"/>
			<path class="st5" d="M164.1,77.3L164.1,77.3c-9.1-0.6-16.9,6.3-17.5,15.4c-0.6,9.1,6.3,16.9,15.4,17.5c2.6,0.2,5.1-0.3,7.5-1.3
				l1.4-0.7c8-4.2,11.1-14.1,6.9-22.1c-0.4-0.7-0.8-1.4-1.3-2.1l0,0c0.5-2.3-0.2-4.8-1.8-6.5c-2.8-3-7.4-3.2-10.4-0.4c0,0,0,0,0,0
				C164.2,77.2,164.1,77.2,164.1,77.3z"/>
		</g>
		<path class="st6" d="M164.1,77.3c2.9-2.9,7.6-2.9,10.5,0c0,0,0,0,0,0l0.2,0.2c1.6,1.7,2.3,4.2,1.8,6.5c-1.1-1.4-2.4-2.7-3.9-3.7
			C170.1,78.5,167.1,77.5,164.1,77.3z"/>
		<path class="st7" d="M159.6,77.6c1.5-0.3,3-0.4,4.4-0.4c-2.7,2.7-2.9,7-0.4,9.9c2.6,3.1,7.3,3.5,10.4,0.9c1.2-1,2.1-2.4,2.4-4
			c5.3,7.3,3.7,17.6-3.6,22.9c-0.6,0.5-1.3,0.9-2,1.2c-8.1,4.3-18.1,1.2-22.4-6.9c-0.3-0.5-0.5-0.9-0.7-1.4c-3.4-8.4,0.6-18,9-21.4
			C157.7,78.1,158.7,77.8,159.6,77.6L159.6,77.6z"/>
		<path class="st8" d="M164,77.3L164,77.3c3.1,0.2,6,1.2,8.5,3c1.5,1.1,2.8,2.3,3.9,3.7l0,0c-0.8,4-4.7,6.6-8.7,5.7
			c-4-0.8-6.6-4.7-5.7-8.7c0-0.1,0-0.1,0-0.2C162.4,79.5,163.1,78.3,164,77.3z"/>
	</g>
	<g>
		<g>
			
				<linearGradient id="SVGID_00000008118796719773783320000006310376533053715635_" gradientUnits="userSpaceOnUse" x1="28.0547" y1="61.9415" x2="189.0856" y2="175.1664">
				<stop  offset="0" style="stop-color:#FFEF26"/>
				<stop  offset="5.948725e-02" style="stop-color:#FFE000"/>
				<stop  offset="0.1303" style="stop-color:#FFD300"/>
				<stop  offset="0.2032" style="stop-color:#FECB00"/>
				<stop  offset="0.2809" style="stop-color:#FDC800"/>
				<stop  offset="0.6685" style="stop-color:#F18F34"/>
				<stop  offset="0.8876" style="stop-color:#E95F32"/>
				<stop  offset="1" style="stop-color:#E3312D"/>
			</linearGradient>
			<path style="fill:url(#SVGID_00000008118796719773783320000006310376533053715635_);" d="M69.7,67.6c5-0.5,10.1,0.8,14.3,3.6
				c4.3,2.8,7.6,6.8,9.5,11.6c2,5,2.5,10.4,1.4,15.7c-0.8,3.9-2.6,7.6-5,10.7c-2.2,2.8-5,5-8.2,6.6c-3.7,1.8-7.8,2.5-11.9,2.1
				c-4.1-0.4-8-1.9-11.4-4.4c-4-2.9-7-7-8.6-11.6c-2-5.5-2.1-11.5-0.4-17.1c1.5-4.9,4.5-9.2,8.5-12.4C61.2,69.6,65.4,68,69.7,67.6z"
				/>
			<path class="st5" d="M73.1,76.4L73.1,76.4c-9.1-0.6-16.9,6.3-17.5,15.4S62,108.6,71,109.2c2.6,0.2,5.1-0.3,7.5-1.3l1.4-0.7
				c8-4.2,11.1-14.1,6.9-22.1c-0.4-0.7-0.8-1.4-1.3-2.1l0,0c0.5-2.3-0.2-4.8-1.8-6.5c-2.8-3-7.4-3.2-10.4-0.4c0,0,0,0,0,0
				C73.3,76.3,73.2,76.3,73.1,76.4z"/>
		</g>
		<path class="st6" d="M73.1,76.4c2.9-2.9,7.6-2.9,10.5,0c0,0,0,0,0,0l0.2,0.2c1.6,1.7,2.3,4.2,1.8,6.5c-1.1-1.4-2.4-2.7-3.9-3.7
			C79.2,77.6,76.2,76.5,73.1,76.4z"/>
		<path class="st7" d="M68.7,76.7c1.5-0.3,3-0.4,4.4-0.4c-2.7,2.7-2.9,7-0.4,9.9c2.6,3.1,7.3,3.5,10.4,0.9c1.2-1,2.1-2.4,2.4-4
			c5.3,7.3,3.7,17.6-3.6,22.9c-0.6,0.5-1.3,0.9-2,1.2c-8.1,4.3-18.1,1.2-22.4-6.9c-0.3-0.5-0.5-0.9-0.7-1.4c-3.4-8.4,0.6-18,9-21.4
			C66.8,77.2,67.7,76.9,68.7,76.7L68.7,76.7z"/>
		<path class="st8" d="M73.1,76.4L73.1,76.4c3.1,0.2,6,1.2,8.5,3c1.5,1.1,2.8,2.3,3.9,3.7l0,0c-0.8,4-4.7,6.6-8.7,5.7
			c-4-0.8-6.6-4.7-5.7-8.7c0-0.1,0-0.1,0-0.2C71.4,78.6,72.1,77.4,73.1,76.4z"/>
	</g>
</g>
</svg>
